<?xml version="1.0" encoding="utf-8"?>
<!-- Generator: Adobe Illustrator 25.0.0, SVG Export Plug-In . SVG Version: 6.00 Build 0)  -->
<svg version="1.1" id="Layer_1" xmlns="http://www.w3.org/2000/svg" xmlns:xlink="http://www.w3.org/1999/xlink" x="0px" y="0px"
	 viewBox="0 0 800 800" style="enable-background:new 0 0 800 800;" xml:space="preserve">
<style type="text/css">
	.st0{fill:#C4C4C4;}
	.st1{fill:none;stroke:#323232;stroke-width:48;stroke-linecap:round;stroke-linejoin:round;stroke-miterlimit:133.3333;}
</style>
<path class="st0" d="M633.3,100H166.7c-36.8,0-66.7,29.8-66.7,66.7v39.1c0,17.7,7,34.6,19.5,47.1l194.3,194.3
	c12.5,12.5,19.5,29.5,19.5,47.1v172.4v9.5c0,21.1,25.5,31.6,40.4,16.7l26.3-26.3l47.1-47.1c12.5-12.5,19.5-29.5,19.5-47.1v-78.1
	c0-17.7,7-34.6,19.5-47.1l194.3-194.3c12.5-12.5,19.5-29.5,19.5-47.1v-39.1C700,129.8,670.2,100,633.3,100z"/>
<path class="st1" d="M633.3,100H166.7c-36.8,0-66.7,29.8-66.7,66.7v39.1c0,17.7,7,34.6,19.5,47.1l194.3,194.3
	c12.5,12.5,19.5,29.5,19.5,47.1v172.4v9.5c0,21.1,25.5,31.6,40.4,16.7l26.3-26.3l47.1-47.1c12.5-12.5,19.5-29.5,19.5-47.1v-78.1
	c0-17.7,7-34.6,19.5-47.1l194.3-194.3c12.5-12.5,19.5-29.5,19.5-47.1v-39.1C700,129.8,670.2,100,633.3,100z"/>
</svg>
