<?xml version="1.0" encoding="utf-8"?>
<!-- Generator: Adobe Illustrator 25.0.0, SVG Export Plug-In . SVG Version: 6.00 Build 0)  -->
<svg version="1.1" id="Layer_1" xmlns="http://www.w3.org/2000/svg" xmlns:xlink="http://www.w3.org/1999/xlink" x="0px" y="0px"
	 viewBox="0 0 512 640" style="enable-background:new 0 0 512 640;" xml:space="preserve">
<style type="text/css">
	.st0{fill:#FFFFFF;}
</style>
<g>
	<path class="st0" d="M427.1,170.8C427.1,76.5,350.5,0,256,0C161.5,0,84.9,76.5,84.9,170.8h101.2c0-38.5,31.4-69.8,69.9-69.8
		c38.6,0,69.9,31.3,69.9,69.8c0,26-14.3,48.7-35.5,60.7v0.1c-33.5,19.5-59.7,50-73.7,86.5l0,0c-4.8,12.4-8.1,25.5-9.8,39.2h0.1v30.2
		h103.4v-30.2h-0.2c5.6-16.7,17.3-30.7,32.6-39.2h-0.1C393.2,288.4,427.1,233.6,427.1,170.8z"/>
	<rect x="206.9" y="426.7" class="st0" width="103.4" height="85.3"/>
</g>
</svg>
