<?xml version="1.0" encoding="utf-8"?>
<!-- Generator: Adobe Illustrator 25.0.0, SVG Export Plug-In . SVG Version: 6.00 Build 0)  -->
<svg version="1.1" id="Layer_1" xmlns="http://www.w3.org/2000/svg" xmlns:xlink="http://www.w3.org/1999/xlink" x="0px" y="0px"
	 viewBox="0 0 1024 1024" style="enable-background:new 0 0 1024 1024;" xml:space="preserve">
<style type="text/css">
	.st0{fill:#F2210F;}
	.st1{fill:#88210F;}
	.st2{fill:#FFFFFF;}
</style>
<g>
	<path class="st0" d="M151.8,932.7c-15.1,0-29.5-3.8-42.7-11.4c-13.1-7.5-23.6-17.9-31.2-30.9c-16.2-27.6-16.6-56.9-1.3-84.6
		l365.2-669.5c7.6-13.8,18.1-24.7,31.3-32.7c13.4-8.1,28.2-12.2,43.8-12.2c15.6,0,30.3,4.1,43.8,12.2c13.4,8.1,24,19.1,31.5,32.8
		l365.1,669.4c15.4,27.8,14.9,57-1.4,84.6c-7.5,12.8-18,23.2-31.1,30.8l-0.1,0.1c-13.2,7.6-27.5,11.4-42.7,11.4H151.8z"/>
	<path class="st1" d="M516.9,116.3c11.1,0,21.4,2.9,30.9,8.6c9.6,5.8,17.1,13.6,22.5,23.4l365.1,669.4c11.1,20,10.8,39.9-1,59.9
		c-5.4,9.2-12.8,16.5-22.1,21.9c-9.4,5.4-19.4,8.1-30.2,8.1H151.8c-10.8,0-20.8-2.7-30.2-8.1c-9.4-5.4-16.7-12.7-22.1-21.9
		c-11.7-20-12-39.9-1-59.9l365.2-669.5c5.4-9.8,12.8-17.6,22.3-23.3S505.8,116.3,516.9,116.3 M516.9,66.3
		c-20.2,0-39.2,5.3-56.6,15.7c-17,10.2-30.6,24.4-40.4,42l-0.1,0.1l-0.1,0.1L54.6,793.8c-19.4,35.3-18.8,74.1,1.7,109.1l0,0l0,0
		c9.9,16.8,23.4,30.2,40.3,39.9c17,9.8,35.6,14.7,55.1,14.7h730.3c19.5,0,38.1-5,55.1-14.7l0.1-0.1l0.1-0.1
		c16.8-9.8,30.3-23.1,40.1-39.7l0,0c20.7-35.1,21.3-74,1.7-109.4l-365-669.2l-0.1-0.1l-0.1-0.1c-9.7-17.5-23.3-31.7-40.4-42.1
		l-0.1,0l-0.1,0C556.1,71.6,537.1,66.3,516.9,66.3L516.9,66.3z"/>
</g>
<path class="st2" d="M584,594.8l9.6-244c0-4.2-1.8-7.6-5.4-10.1c-4.6-3.9-8.8-5.8-12.7-5.8h-117c-3.9,0-8.2,1.9-12.7,5.8
	c-3.6,2.5-5.4,6.1-5.4,11.2l9.1,243c0,3.6,1.8,6.5,5.4,8.7c3.6,2.3,7.8,3.5,12.7,3.5H566c4.9,0,9.2-1.1,12.5-3.5
	C581.7,601.3,583.6,598.2,584,594.8L584,594.8z"/>
<path class="st2" d="M585.1,793.6v-101c0-4.9-1.7-9.2-5-12.5s-7.4-5-12-5H466c-4.6,0-8.6,1.7-12,5s-5,7.5-5,12.5v101
	c0,4.9,1.7,9.2,5,12.5s7.4,5,12,5h102.1c4.6,0,8.6-1.7,12-5S585.1,798.6,585.1,793.6z"/>
</svg>
