<?xml version="1.0" encoding="utf-8"?>
<!-- Generator: Adobe Illustrator 25.0.0, SVG Export Plug-In . SVG Version: 6.00 Build 0)  -->
<svg version="1.1" id="Layer_1" xmlns="http://www.w3.org/2000/svg" xmlns:xlink="http://www.w3.org/1999/xlink" x="0px" y="0px"
	 viewBox="0 0 797.5 791.1" style="enable-background:new 0 0 797.5 791.1;" xml:space="preserve">
<style type="text/css">
	.st0{fill:#C4C4C4;stroke:#363636;stroke-width:47;stroke-miterlimit:10;}
</style>
<g>
	<path class="st0" d="M772.6,200.7c-0.6-6.8-5-12.6-11.4-14.9c-6.4-2.3-13.5-0.7-18.3,4l-98.1,98.1l-108.7-34.4l-34.4-108.7
		l98.1-98.1c4.8-4.8,6.4-11.9,4.1-18.3C601.6,22,595.8,17.6,589,17c-59.7-5.1-118,16.1-160.2,58.3c-57.8,57.8-73.1,142.2-46,214.2
		c-3,2.5-5.9,5.1-8.8,8l-327.4,309c-0.1,0.1-0.2,0.2-0.4,0.3C7.7,645.3,7.7,708,46.2,746.5s100.7,38,139.2-0.5
		c0.2-0.2,0.3-0.3,0.5-0.5l306.3-330c2.8-2.8,5.4-5.7,7.8-8.7c72,27.2,156.4,11.9,214.3-46C756.5,318.6,777.7,260.2,772.6,200.7z"/>
</g>
</svg>
