<?xml version="1.0" encoding="utf-8"?>
<!-- Generator: Adobe Illustrator 25.0.0, SVG Export Plug-In . SVG Version: 6.00 Build 0)  -->
<svg version="1.1" id="Layer_1" xmlns="http://www.w3.org/2000/svg" xmlns:xlink="http://www.w3.org/1999/xlink" x="0px" y="0px"
	 viewBox="0 0 100 96" style="enable-background:new 0 0 100 96;" xml:space="preserve">
<g transform="translate(0,-952.36218)">
	<path d="M43.4,990.5l-13.5-13.2c-1.6-1.5-4.1-1.5-5.6,0.1c-1.5,1.6-1.5,4.1,0.1,5.6l13.5,13.2l5.8,5.6l26.9,26
		c1.6,1.5,4.1,1.5,5.6-0.1c1.5-1.6,1.5-4.1-0.1-5.6l-26.9-26"/>
</g>
<g transform="translate(0,-952.36218)">
	<path d="M52.2,996.1l-26.9,26c-1.7,1.5-1.7,4.1-0.1,5.6c1.5,1.7,4.1,1.7,5.6,0.1l26.9-26l5.8-5.6L77,983.1c1.7-1.5,1.7-4.1,0.1-5.6
		c-1.5-1.7-4.1-1.7-5.6-0.1l-13.5,13.2"/>
</g>
</svg>
